<?xml version="1.0" encoding="utf-8"?>
<!-- Generator: Adobe Illustrator 26.1.0, SVG Export Plug-In . SVG Version: 6.00 Build 0)  -->
<svg version="1.1" id="Слой_1" xmlns="http://www.w3.org/2000/svg" xmlns:xlink="http://www.w3.org/1999/xlink" x="0px" y="0px"
	 viewBox="0 0 636 800" style="enable-background:new 0 0 636 800;" xml:space="preserve">
<style type="text/css">
	.st0{fill-rule:evenodd;clip-rule:evenodd;fill:#548bb3;}
</style>
<path class="st0" d="M17.1,97.1C-5.1,74.8-5.1,38.6,17.2,16.3S75.7-5.9,98,16.4l342.5,343.2c22.3,22.3,22.3,58.5-0.1,80.8
	L97.3,782.9c-22.3,22.3-58.5,22.3-80.8-0.1c-22.3-22.3-22.3-58.5,0.1-80.8l302.7-302.2L17.1,97.1z"/>
<path class="st0" d="M196.1,97.8c-22.3-22.3-22.3-58.5,0.1-80.8s58.5-22.3,80.8,0.1l342.5,343.2c22.3,22.3,22.3,58.5-0.1,80.8
	L276.3,783.6c-22.3,22.3-58.5,22.3-80.8-0.1c-22.3-22.3-22.3-58.5,0.1-80.8l302.7-302.2L196.1,97.8z"/>
</svg>
