<?xml version="1.0" encoding="utf-8"?>
<!-- Generator: Adobe Illustrator 26.1.0, SVG Export Plug-In . SVG Version: 6.00 Build 0)  -->
<svg version="1.1" id="meteor-icon-kit__regular-chevron-left-s"
	 xmlns="http://www.w3.org/2000/svg" xmlns:xlink="http://www.w3.org/1999/xlink" x="0px" y="0px" viewBox="0 0 636.1 800"
	 style="enable-background:new 0 0 636.1 800;" xml:space="preserve">
<style type="text/css">
	.st0{fill-rule:evenodd;clip-rule:evenodd;fill:#00FFFF;}
</style>
<path class="st0" d="M619.4,702.5c22.3,22.3,22.3,58.5,0,80.8c-22.3,22.3-58.5,22.3-80.8,0L195.7,440.4c-22.3-22.3-22.3-58.5,0-80.8
	L538.6,16.7c22.3-22.3,58.5-22.3,80.8,0c22.3,22.3,22.3,58.5,0,80.8L317,400L619.4,702.5z"/>
<path class="st0" d="M440.4,702c22.3,22.3,22.3,58.5,0,80.8c-22.3,22.3-58.5,22.3-80.8,0L16.7,439.9c-22.3-22.3-22.3-58.5,0-80.8
	L359.6,16.2c22.3-22.3,58.5-22.3,80.8,0c22.3,22.3,22.3,58.5,0,80.8L138,399.5L440.4,702z"/>
</svg>
